<svg width="396" height="396" viewBox="0 0 396 396" fill="none" xmlns="http://www.w3.org/2000/svg">
<path d="M127.464 111C123.204 111 119.152 112.847 116.355 116.064L77.5433 160.699V111.156H59V170.663C59 178.861 65.6365 185.507 73.8229 185.507C78.1097 185.507 82.1865 183.648 85.0017 180.411L123.651 135.963V170.663C123.651 178.861 130.287 185.507 138.473 185.507C142.76 185.507 146.837 183.648 149.652 180.411L188.301 135.963V185.506H206.844V125.751C206.844 117.604 200.249 111 192.114 111C187.854 111 183.803 112.847 181.005 116.064L142.194 160.699V125.751C142.194 117.604 135.599 111 127.464 111Z" fill="#F8F8F8" fill-opacity="0.4"/>
<path d="M313.217 111L294.803 139.502H247.923V111.156H229.38V185.507H247.923V158.09H294.974L313.828 185.507H336.35L310.995 148.635L335.31 111H313.217Z" fill="#F8F8F8" fill-opacity="0.4"/>
<path d="M257.619 210.493C253.359 210.493 249.308 212.34 246.51 215.557L207.699 260.192V210.649H189.156V270.156C189.156 278.354 195.792 285 203.979 285C208.265 285 212.342 283.142 215.157 279.904L253.806 235.456V270.156C253.806 278.354 260.443 285 268.629 285C272.916 285 276.993 283.142 279.808 279.904L318.457 235.456V285H337V225.245C337 217.098 330.405 210.493 322.27 210.493C318.01 210.493 313.958 212.34 311.161 215.557L272.349 260.192V225.244C272.349 217.098 265.755 210.493 257.619 210.493Z" fill="#F8F8F8" fill-opacity="0.4"/>
<path fill-rule="evenodd" clip-rule="evenodd" d="M166.351 285L153.494 263.473C164.028 259.741 171.576 249.671 171.576 237.834C171.576 222.821 159.434 210.65 144.456 210.65H59V285H77.5434V265.019H132.805L144.739 285H166.351ZM77.5434 246.431H144.456C149.193 246.431 153.032 242.582 153.032 237.834C153.032 233.086 149.193 229.237 144.456 229.237H77.5434V246.431Z" fill="#F8F8F8" fill-opacity="0.4"/>
</svg>
